# xmcd CD database file
#
# Track frame offsets:
#	150
#	16150
#	31462
#	50362
#	69150
#	91200
#	106800
#	123375
#	138000
#	156337
#
# Disc length: 2306 seconds
#
# Revision: 0
# Processed by: cddbd v1.5.1PL2 Copyright (c) Steve Scherf et al.
# Submitted via: CDex 1.51
#
DISCID=7309000a
DTITLE=Ricky Valente - A Place in My Dreams
DYEAR=1999
DGENRE=Blues
TTITLE0=Place in My Dreams
TTITLE1=Stepping Stone
TTITLE2=Hideaway
TTITLE3=Best of What We Get
TTITLE4=Hold That Thought
TTITLE5=We Lost The Day
TTITLE6=Find a Way
TTITLE7=All I See
TTITLE8=Unsaid
TTITLE9=How Long
EXTD=YEAR: 1999
EXTT0=
EXTT1=
EXTT2=
EXTT3=
EXTT4=
EXTT5=
EXTT6=
EXTT7=
EXTT8=
EXTT9=
PLAYORDER=
